<svg xmlns="http://www.w3.org/2000/svg" xmlns:xlink="http://www.w3.org/1999/xlink" width="206" zoomAndPan="magnify" viewBox="0 0 154.5 60.75" height="81" preserveAspectRatio="xMidYMid meet" version="1.0"><defs><g/><clipPath id="id1"><path d="M 0.0664062 11 L 25 11 L 25 53 L 0.0664062 53 Z M 0.0664062 11 " clip-rule="nonzero"/></clipPath></defs><g clip-path="url(#id1)"><g fill="#000000" fill-opacity="1"><g transform="translate(0.109561, 38.465547)"><g><path d="M 24.640625 -4.8125 C 24.765625 -4.820312 24.820312 -4.734375 24.8125 -4.546875 C 24.800781 -4.359375 24.722656 -4.253906 24.578125 -4.234375 C 24.441406 -4.210938 24.316406 -4.148438 24.203125 -4.046875 C 24.097656 -3.941406 24.046875 -3.820312 24.046875 -3.6875 C 24.078125 -2.550781 23.929688 -1.453125 23.609375 -0.390625 C 23.285156 0.660156 22.851562 1.679688 22.3125 2.671875 C 21.238281 4.703125 19.929688 6.507812 18.390625 8.09375 C 16.859375 9.6875 15.066406 11.03125 13.015625 12.125 C 11.878906 12.707031 10.710938 13.144531 9.515625 13.4375 C 8.316406 13.738281 7.070312 13.851562 5.78125 13.78125 C 4.707031 13.71875 3.703125 13.429688 2.765625 12.921875 C 1.640625 12.253906 0.894531 11.382812 0.53125 10.3125 C 0.175781 9.25 0.242188 8.117188 0.734375 6.921875 C 1.253906 5.742188 2.070312 4.648438 3.1875 3.640625 C 4.3125 2.640625 5.613281 1.710938 7.09375 0.859375 C 8.570312 0.015625 10.113281 -0.726562 11.71875 -1.375 C 13.332031 -2.019531 14.882812 -2.570312 16.375 -3.03125 C 17.863281 -3.5 19.1875 -3.847656 20.34375 -4.078125 C 20.664062 -4.148438 20.976562 -4.21875 21.28125 -4.28125 C 21.613281 -4.34375 21.9375 -4.40625 22.25 -4.46875 C 22.53125 -4.519531 22.628906 -4.671875 22.546875 -4.921875 C 22.273438 -6.046875 21.726562 -7.019531 20.90625 -7.84375 C 20.320312 -8.414062 19.679688 -8.898438 18.984375 -9.296875 C 18.296875 -9.703125 17.570312 -10.039062 16.8125 -10.3125 C 14.507812 -11.132812 12.128906 -11.59375 9.671875 -11.6875 C 9.503906 -11.707031 9.332031 -11.71875 9.15625 -11.71875 C 8.957031 -11.695312 8.851562 -11.585938 8.84375 -11.390625 C 8.8125 -11.160156 8.796875 -10.925781 8.796875 -10.6875 C 8.785156 -8.832031 8.78125 -6.976562 8.78125 -5.125 C 8.769531 -4.3125 8.765625 -3.492188 8.765625 -2.671875 C 8.765625 -2.609375 8.765625 -2.554688 8.765625 -2.515625 C 8.765625 -2.390625 8.765625 -2.269531 8.765625 -2.15625 C 8.703125 -1.625 8.425781 -1.441406 7.9375 -1.609375 C 7.738281 -1.660156 7.632812 -1.785156 7.625 -1.984375 C 7.601562 -2.242188 7.597656 -2.515625 7.609375 -2.796875 C 7.597656 -4.460938 7.59375 -6.128906 7.59375 -7.796875 C 7.59375 -8.640625 7.59375 -9.472656 7.59375 -10.296875 C 7.59375 -10.367188 7.59375 -10.441406 7.59375 -10.515625 C 7.59375 -10.710938 7.585938 -10.914062 7.578125 -11.125 C 7.578125 -11.351562 7.539062 -11.5 7.46875 -11.5625 C 7.40625 -11.632812 7.269531 -11.675781 7.0625 -11.6875 C 6.96875 -11.6875 6.878906 -11.6875 6.796875 -11.6875 C 6.578125 -11.707031 6.359375 -11.726562 6.140625 -11.75 C 5.953125 -11.769531 5.820312 -11.867188 5.75 -12.046875 C 5.695312 -12.273438 5.757812 -12.460938 5.9375 -12.609375 C 6.164062 -12.796875 6.410156 -12.976562 6.671875 -13.15625 C 6.773438 -13.21875 6.875 -13.273438 6.96875 -13.328125 C 7.164062 -13.453125 7.304688 -13.554688 7.390625 -13.640625 C 7.484375 -13.722656 7.535156 -13.816406 7.546875 -13.921875 C 7.566406 -14.023438 7.578125 -14.191406 7.578125 -14.421875 C 7.566406 -14.546875 7.5625 -14.695312 7.5625 -14.875 C 7.570312 -16.21875 7.578125 -17.5625 7.578125 -18.90625 C 7.578125 -19.644531 7.578125 -20.394531 7.578125 -21.15625 C 7.578125 -21.164062 7.578125 -21.179688 7.578125 -21.203125 C 7.578125 -21.460938 7.585938 -21.71875 7.609375 -21.96875 C 7.628906 -22.289062 7.816406 -22.445312 8.171875 -22.4375 C 8.515625 -22.445312 8.710938 -22.296875 8.765625 -21.984375 C 8.785156 -21.671875 8.796875 -21.359375 8.796875 -21.046875 C 8.796875 -20.242188 8.796875 -19.441406 8.796875 -18.640625 C 8.796875 -17.660156 8.804688 -16.6875 8.828125 -15.71875 C 8.804688 -15.644531 8.796875 -15.582031 8.796875 -15.53125 C 8.773438 -15.25 8.816406 -14.929688 8.921875 -14.578125 C 9.703125 -15.035156 10.644531 -15.609375 11.75 -16.296875 C 12.851562 -16.984375 13.976562 -17.722656 15.125 -18.515625 C 16.269531 -19.304688 17.285156 -20.097656 18.171875 -20.890625 C 19.054688 -21.679688 19.671875 -22.410156 20.015625 -23.078125 C 20.378906 -23.847656 20.210938 -24.476562 19.515625 -24.96875 C 18.648438 -25.550781 17.535156 -25.867188 16.171875 -25.921875 C 14.816406 -25.972656 13.378906 -25.828125 11.859375 -25.484375 C 10.347656 -25.140625 8.941406 -24.660156 7.640625 -24.046875 C 6.347656 -23.441406 5.328125 -22.753906 4.578125 -21.984375 C 4.335938 -21.734375 4.117188 -21.4375 3.921875 -21.09375 C 3.734375 -20.75 3.585938 -20.40625 3.484375 -20.0625 C 3.398438 -19.84375 3.238281 -19.710938 3 -19.671875 C 2.769531 -19.640625 2.570312 -19.707031 2.40625 -19.875 C 2.320312 -20 2.296875 -20.128906 2.328125 -20.265625 C 2.441406 -20.671875 2.628906 -21.039062 2.890625 -21.375 C 3.722656 -22.445312 4.910156 -23.382812 6.453125 -24.1875 C 7.992188 -24.988281 9.664062 -25.59375 11.46875 -26 C 13.269531 -26.414062 14.976562 -26.585938 16.59375 -26.515625 C 18.207031 -26.453125 19.515625 -26.085938 20.515625 -25.421875 C 21.523438 -24.722656 21.738281 -23.832031 21.15625 -22.75 C 20.863281 -22.207031 20.429688 -21.65625 19.859375 -21.09375 C 19.285156 -20.53125 18.675781 -20 18.03125 -19.5 C 17.394531 -19 16.828125 -18.566406 16.328125 -18.203125 C 15.421875 -17.535156 14.488281 -16.894531 13.53125 -16.28125 C 12.570312 -15.675781 11.609375 -15.085938 10.640625 -14.515625 C 10.617188 -14.503906 10.59375 -14.488281 10.5625 -14.46875 C 10.082031 -14.1875 9.613281 -13.898438 9.15625 -13.609375 C 8.820312 -13.359375 8.722656 -13.03125 8.859375 -12.625 C 8.867188 -12.582031 8.894531 -12.539062 8.9375 -12.5 C 8.976562 -12.457031 9.019531 -12.4375 9.0625 -12.4375 C 9.257812 -12.40625 9.453125 -12.390625 9.640625 -12.390625 C 9.648438 -12.390625 9.664062 -12.390625 9.6875 -12.390625 C 12.238281 -12.316406 14.722656 -11.878906 17.140625 -11.078125 C 18.484375 -10.648438 19.734375 -10.03125 20.890625 -9.21875 C 21.585938 -8.71875 22.179688 -8.148438 22.671875 -7.515625 C 23.160156 -6.878906 23.523438 -6.148438 23.765625 -5.328125 C 23.835938 -5.054688 23.921875 -4.890625 24.015625 -4.828125 C 24.117188 -4.765625 24.328125 -4.757812 24.640625 -4.8125 Z M 22.734375 -2.796875 C 22.785156 -3.273438 22.75 -3.566406 22.625 -3.671875 C 22.507812 -3.785156 22.207031 -3.78125 21.71875 -3.65625 C 20.570312 -3.425781 19.269531 -3.097656 17.8125 -2.671875 C 16.363281 -2.242188 14.867188 -1.722656 13.328125 -1.109375 C 11.796875 -0.492188 10.320312 0.207031 8.90625 1 C 7.488281 1.800781 6.238281 2.6875 5.15625 3.65625 C 4.082031 4.632812 3.273438 5.707031 2.734375 6.875 C 2.335938 7.757812 2.15625 8.59375 2.1875 9.375 C 2.226562 10.164062 2.429688 10.847656 2.796875 11.421875 C 3.160156 11.992188 3.644531 12.394531 4.25 12.625 C 5.019531 12.925781 5.816406 13.085938 6.640625 13.109375 C 6.703125 13.109375 6.753906 13.101562 6.796875 13.09375 C 6.921875 13.082031 7.039062 13.078125 7.15625 13.078125 C 8.707031 12.921875 10.175781 12.492188 11.5625 11.796875 C 14.082031 10.546875 16.210938 8.9375 17.953125 6.96875 C 19.691406 5 21.066406 2.707031 22.078125 0.09375 C 22.429688 -0.832031 22.648438 -1.796875 22.734375 -2.796875 Z M 22.734375 -2.796875 "/></g></g></g></g><g fill="#000000" fill-opacity="1"><g transform="translate(25.846308, 38.465547)"><g><path d="M 7.890625 -3.90625 C 8.347656 -4.414062 8.585938 -4.609375 8.609375 -4.484375 C 8.628906 -4.367188 8.53125 -4.09375 8.3125 -3.65625 C 8.09375 -3.226562 7.753906 -2.863281 7.296875 -2.5625 C 6.953125 -2.351562 6.65625 -2.210938 6.40625 -2.140625 C 6.164062 -2.066406 5.945312 -2.023438 5.75 -2.015625 C 5.363281 -1.992188 5.066406 -2.101562 4.859375 -2.34375 C 4.648438 -2.59375 4.503906 -2.910156 4.421875 -3.296875 C 4.347656 -3.691406 4.289062 -4.09375 4.25 -4.5 C 4.207031 -4.769531 4.171875 -5.007812 4.140625 -5.21875 C 4.097656 -5.550781 4.003906 -5.734375 3.859375 -5.765625 C 3.710938 -5.796875 3.492188 -5.582031 3.203125 -5.125 C 2.898438 -4.632812 2.628906 -4.085938 2.390625 -3.484375 C 2.160156 -2.890625 1.957031 -2.3125 1.78125 -1.75 C 1.769531 -1.726562 1.757812 -1.695312 1.75 -1.65625 C 1.71875 -1.570312 1.691406 -1.488281 1.671875 -1.40625 C 1.597656 -1.164062 1.515625 -0.9375 1.421875 -0.71875 C 1.335938 -0.53125 1.195312 -0.40625 1 -0.34375 C 0.800781 -0.28125 0.597656 -0.296875 0.390625 -0.390625 C 0.242188 -0.441406 0.148438 -0.539062 0.109375 -0.6875 C 0.0351562 -0.894531 0.0078125 -1.113281 0.03125 -1.34375 C 0.03125 -1.363281 0.03125 -1.378906 0.03125 -1.390625 C 0.0820312 -2.328125 0.09375 -3.878906 0.0625 -6.046875 C 0.03125 -7.785156 0.015625 -9.648438 0.015625 -11.640625 C 0.015625 -13.640625 0.0664062 -15.523438 0.171875 -17.296875 C 0.273438 -19.066406 0.445312 -20.484375 0.6875 -21.546875 C 0.800781 -21.929688 0.976562 -22.273438 1.21875 -22.578125 C 1.46875 -22.890625 1.742188 -23.0625 2.046875 -23.09375 C 2.347656 -23.125 2.628906 -22.921875 2.890625 -22.484375 C 3.066406 -22.109375 3.175781 -21.707031 3.21875 -21.28125 C 3.332031 -20.019531 3.222656 -18.085938 2.890625 -15.484375 C 2.566406 -12.890625 2.222656 -10.613281 1.859375 -8.65625 C 1.503906 -6.707031 1.328125 -5.078125 1.328125 -3.765625 C 1.441406 -3.960938 1.5625 -4.175781 1.6875 -4.40625 C 1.851562 -4.738281 2.035156 -5.066406 2.234375 -5.390625 C 2.441406 -5.722656 2.6875 -6.003906 2.96875 -6.234375 C 3.25 -6.460938 3.59375 -6.609375 4 -6.671875 C 4.269531 -6.710938 4.546875 -6.691406 4.828125 -6.609375 C 5.109375 -6.535156 5.300781 -6.34375 5.40625 -6.03125 C 5.519531 -5.488281 5.554688 -4.910156 5.515625 -4.296875 C 5.515625 -3.648438 5.628906 -3.238281 5.859375 -3.0625 C 6.085938 -2.894531 6.367188 -2.863281 6.703125 -2.96875 C 7.035156 -3.082031 7.429688 -3.394531 7.890625 -3.90625 Z M 1.875 -20.546875 C 1.8125 -19.878906 1.742188 -18.757812 1.671875 -17.1875 C 1.597656 -15.613281 1.535156 -14.035156 1.484375 -12.453125 C 1.429688 -10.878906 1.40625 -9.570312 1.40625 -8.53125 C 1.53125 -9.476562 1.679688 -10.707031 1.859375 -12.21875 C 2.046875 -13.738281 2.207031 -15.300781 2.34375 -16.90625 C 2.488281 -18.507812 2.5625 -19.710938 2.5625 -20.515625 C 2.550781 -20.941406 2.519531 -21.253906 2.46875 -21.453125 C 2.425781 -21.660156 2.347656 -21.734375 2.234375 -21.671875 C 2.117188 -21.617188 2.03125 -21.472656 1.96875 -21.234375 C 1.914062 -20.992188 1.882812 -20.765625 1.875 -20.546875 Z M 1.875 -20.546875 "/></g></g></g><g fill="#000000" fill-opacity="1"><g transform="translate(34.014794, 38.465547)"><g><path d="M 8.328125 -4.046875 C 8.441406 -4.035156 8.421875 -3.875 8.265625 -3.5625 C 8.109375 -3.25 7.847656 -2.890625 7.484375 -2.484375 C 7.117188 -2.078125 6.710938 -1.722656 6.265625 -1.421875 C 5.816406 -1.128906 5.367188 -0.992188 4.921875 -1.015625 C 4.585938 -1.054688 4.34375 -1.15625 4.1875 -1.3125 C 4.03125 -1.476562 3.921875 -1.660156 3.859375 -1.859375 C 3.804688 -2.066406 3.769531 -2.25 3.75 -2.40625 C 3.738281 -2.507812 3.722656 -2.585938 3.703125 -2.640625 C 3.691406 -2.691406 3.660156 -2.691406 3.609375 -2.640625 C 3.265625 -1.859375 2.671875 -1.46875 1.828125 -1.46875 C 1.359375 -1.46875 0.972656 -1.675781 0.671875 -2.09375 C 0.378906 -2.507812 0.191406 -3.03125 0.109375 -3.65625 C 0.0351562 -4.289062 0.0976562 -4.9375 0.296875 -5.59375 C 0.347656 -5.800781 0.476562 -5.945312 0.6875 -6.03125 C 0.84375 -6.09375 1 -6.085938 1.15625 -6.015625 C 1.320312 -5.941406 1.410156 -5.835938 1.421875 -5.703125 C 1.421875 -5.554688 1.410156 -5.410156 1.390625 -5.265625 C 1.359375 -5.160156 1.335938 -5.0625 1.328125 -4.96875 C 1.304688 -4.582031 1.3125 -4.15625 1.34375 -3.6875 C 1.382812 -3.226562 1.507812 -2.835938 1.71875 -2.515625 C 1.914062 -2.242188 2.140625 -2.207031 2.390625 -2.40625 C 2.640625 -2.601562 2.859375 -2.910156 3.046875 -3.328125 C 3.191406 -3.648438 3.304688 -3.972656 3.390625 -4.296875 C 3.472656 -4.628906 3.523438 -4.882812 3.546875 -5.0625 C 3.566406 -5.132812 3.578125 -5.179688 3.578125 -5.203125 C 3.609375 -5.335938 3.644531 -5.472656 3.6875 -5.609375 C 3.75 -5.804688 3.804688 -6 3.859375 -6.1875 C 3.960938 -6.550781 4.222656 -6.707031 4.640625 -6.65625 C 4.890625 -6.625 5.023438 -6.5 5.046875 -6.28125 C 5.066406 -5.96875 5.070312 -5.660156 5.0625 -5.359375 C 5.050781 -5.035156 5.035156 -4.722656 5.015625 -4.421875 C 4.984375 -3.972656 4.960938 -3.53125 4.953125 -3.09375 C 4.941406 -2.457031 5.066406 -2.082031 5.328125 -1.96875 C 5.597656 -1.863281 5.925781 -1.929688 6.3125 -2.171875 C 6.695312 -2.421875 7.066406 -2.75 7.421875 -3.15625 C 7.453125 -3.195312 7.492188 -3.25 7.546875 -3.3125 C 7.609375 -3.394531 7.691406 -3.492188 7.796875 -3.609375 C 7.898438 -3.722656 8 -3.820312 8.09375 -3.90625 C 8.1875 -3.988281 8.265625 -4.035156 8.328125 -4.046875 Z M 8.328125 -4.046875 "/></g></g></g><g fill="#000000" fill-opacity="1"><g transform="translate(41.861369, 38.465547)"><g><path d="M 5.140625 -3.859375 C 5.234375 -4.066406 5.300781 -4.160156 5.34375 -4.140625 C 5.382812 -4.128906 5.394531 -4.046875 5.375 -3.890625 C 5.351562 -3.734375 5.316406 -3.5625 5.265625 -3.375 C 5.203125 -3.082031 5.082031 -2.738281 4.90625 -2.34375 C 4.738281 -1.957031 4.550781 -1.601562 4.34375 -1.28125 C 4.03125 -0.84375 3.644531 -0.507812 3.1875 -0.28125 C 2.726562 -0.0625 2.3125 -0.0078125 1.9375 -0.125 C 1.5625 -0.238281 1.34375 -0.59375 1.28125 -1.1875 C 1.269531 -1.675781 1.316406 -2.21875 1.421875 -2.8125 C 1.453125 -3.050781 1.484375 -3.289062 1.515625 -3.53125 C 1.515625 -3.613281 1.492188 -3.675781 1.453125 -3.71875 C 1.410156 -3.769531 1.351562 -3.789062 1.28125 -3.78125 C 1.238281 -3.78125 1.1875 -3.78125 1.125 -3.78125 C 0.832031 -3.726562 0.53125 -3.734375 0.21875 -3.796875 C -0.144531 -3.898438 -0.351562 -4.078125 -0.40625 -4.328125 C -0.46875 -4.585938 -0.460938 -4.925781 -0.390625 -5.34375 C -0.359375 -5.632812 -0.25 -5.851562 -0.0625 -6 C 0.113281 -6.15625 0.328125 -6.21875 0.578125 -6.1875 C 0.921875 -6.15625 1.085938 -6.023438 1.078125 -5.796875 C 1.066406 -5.566406 1.003906 -5.320312 0.890625 -5.0625 C 0.773438 -4.832031 0.710938 -4.644531 0.703125 -4.5 C 0.703125 -4.351562 0.832031 -4.300781 1.09375 -4.34375 C 1.15625 -4.363281 1.21875 -4.382812 1.28125 -4.40625 C 1.382812 -4.4375 1.492188 -4.46875 1.609375 -4.5 C 1.734375 -4.53125 1.894531 -4.539062 2.09375 -4.53125 C 2.332031 -4.507812 2.488281 -4.394531 2.5625 -4.1875 C 2.644531 -3.988281 2.679688 -3.734375 2.671875 -3.421875 C 2.660156 -3.109375 2.628906 -2.789062 2.578125 -2.46875 C 2.523438 -2.070312 2.5 -1.726562 2.5 -1.4375 C 2.5 -1.144531 2.582031 -0.976562 2.75 -0.9375 C 2.96875 -0.875 3.296875 -1.070312 3.734375 -1.53125 C 4.171875 -1.988281 4.640625 -2.765625 5.140625 -3.859375 Z M 5.140625 -3.859375 "/></g></g></g><g fill="#000000" fill-opacity="1"><g transform="translate(46.7866, 38.465547)"><g><path d="M 9.109375 -4.140625 C 8.960938 -3.691406 8.671875 -3.175781 8.234375 -2.59375 C 7.796875 -2.007812 7.25 -1.632812 6.59375 -1.46875 C 5.9375 -1.300781 5.367188 -1.320312 4.890625 -1.53125 C 4.410156 -1.738281 4.148438 -2.304688 4.109375 -3.234375 C 3.566406 -2.179688 3.046875 -1.503906 2.546875 -1.203125 C 2.054688 -0.910156 1.546875 -0.800781 1.015625 -0.875 C 0.421875 -0.96875 0.0195312 -1.203125 -0.1875 -1.578125 C -0.40625 -1.953125 -0.476562 -2.378906 -0.40625 -2.859375 C -0.34375 -3.347656 -0.195312 -3.816406 0.03125 -4.265625 C 0.207031 -4.585938 0.453125 -4.890625 0.765625 -5.171875 C 1.078125 -5.460938 1.40625 -5.691406 1.75 -5.859375 C 2.175781 -6.066406 2.601562 -6.164062 3.03125 -6.15625 C 3.457031 -6.144531 3.914062 -6.003906 4.40625 -5.734375 C 4.414062 -5.722656 4.421875 -5.734375 4.421875 -5.765625 C 4.421875 -5.804688 4.429688 -5.863281 4.453125 -5.9375 C 4.484375 -6.007812 4.53125 -6.070312 4.59375 -6.125 C 4.75 -6.238281 4.9375 -6.296875 5.15625 -6.296875 C 5.375 -6.296875 5.546875 -6.1875 5.671875 -5.96875 C 5.691406 -5.675781 5.660156 -5.3125 5.578125 -4.875 C 5.398438 -3.90625 5.398438 -3.207031 5.578125 -2.78125 C 5.753906 -2.363281 6.066406 -2.171875 6.515625 -2.203125 C 6.960938 -2.234375 7.539062 -2.675781 8.25 -3.53125 C 8.96875 -4.382812 9.253906 -4.585938 9.109375 -4.140625 Z M 1.1875 -1.875 C 1.425781 -1.695312 1.707031 -1.71875 2.03125 -1.9375 C 2.351562 -2.164062 2.660156 -2.484375 2.953125 -2.890625 C 3.242188 -3.304688 3.488281 -3.71875 3.6875 -4.125 C 3.894531 -4.539062 4.007812 -4.851562 4.03125 -5.0625 C 3.425781 -5.375 2.910156 -5.425781 2.484375 -5.21875 C 2.054688 -5.007812 1.710938 -4.664062 1.453125 -4.1875 C 1.203125 -3.707031 1.050781 -3.238281 1 -2.78125 C 0.957031 -2.320312 1.019531 -2.019531 1.1875 -1.875 Z M 1.1875 -1.875 "/></g></g></g><g fill="#000000" fill-opacity="1"><g transform="translate(55.317229, 38.465547)"><g><path d="M 5.140625 -3.859375 C 5.234375 -4.066406 5.300781 -4.160156 5.34375 -4.140625 C 5.382812 -4.128906 5.394531 -4.046875 5.375 -3.890625 C 5.351562 -3.734375 5.316406 -3.5625 5.265625 -3.375 C 5.203125 -3.082031 5.082031 -2.738281 4.90625 -2.34375 C 4.738281 -1.957031 4.550781 -1.601562 4.34375 -1.28125 C 4.03125 -0.84375 3.644531 -0.507812 3.1875 -0.28125 C 2.726562 -0.0625 2.3125 -0.0078125 1.9375 -0.125 C 1.5625 -0.238281 1.34375 -0.59375 1.28125 -1.1875 C 1.269531 -1.675781 1.316406 -2.21875 1.421875 -2.8125 C 1.453125 -3.050781 1.484375 -3.289062 1.515625 -3.53125 C 1.515625 -3.613281 1.492188 -3.675781 1.453125 -3.71875 C 1.410156 -3.769531 1.351562 -3.789062 1.28125 -3.78125 C 1.238281 -3.78125 1.1875 -3.78125 1.125 -3.78125 C 0.832031 -3.726562 0.53125 -3.734375 0.21875 -3.796875 C -0.144531 -3.898438 -0.351562 -4.078125 -0.40625 -4.328125 C -0.46875 -4.585938 -0.460938 -4.925781 -0.390625 -5.34375 C -0.359375 -5.632812 -0.25 -5.851562 -0.0625 -6 C 0.113281 -6.15625 0.328125 -6.21875 0.578125 -6.1875 C 0.921875 -6.15625 1.085938 -6.023438 1.078125 -5.796875 C 1.066406 -5.566406 1.003906 -5.320312 0.890625 -5.0625 C 0.773438 -4.832031 0.710938 -4.644531 0.703125 -4.5 C 0.703125 -4.351562 0.832031 -4.300781 1.09375 -4.34375 C 1.15625 -4.363281 1.21875 -4.382812 1.28125 -4.40625 C 1.382812 -4.4375 1.492188 -4.46875 1.609375 -4.5 C 1.734375 -4.53125 1.894531 -4.539062 2.09375 -4.53125 C 2.332031 -4.507812 2.488281 -4.394531 2.5625 -4.1875 C 2.644531 -3.988281 2.679688 -3.734375 2.671875 -3.421875 C 2.660156 -3.109375 2.628906 -2.789062 2.578125 -2.46875 C 2.523438 -2.070312 2.5 -1.726562 2.5 -1.4375 C 2.5 -1.144531 2.582031 -0.976562 2.75 -0.9375 C 2.96875 -0.875 3.296875 -1.070312 3.734375 -1.53125 C 4.171875 -1.988281 4.640625 -2.765625 5.140625 -3.859375 Z M 5.140625 -3.859375 "/></g></g></g><g fill="#000000" fill-opacity="1"><g transform="translate(60.24246, 38.465547)"><g><path d="M 9.109375 -4.140625 C 8.960938 -3.691406 8.671875 -3.175781 8.234375 -2.59375 C 7.796875 -2.007812 7.25 -1.632812 6.59375 -1.46875 C 5.9375 -1.300781 5.367188 -1.320312 4.890625 -1.53125 C 4.410156 -1.738281 4.148438 -2.304688 4.109375 -3.234375 C 3.566406 -2.179688 3.046875 -1.503906 2.546875 -1.203125 C 2.054688 -0.910156 1.546875 -0.800781 1.015625 -0.875 C 0.421875 -0.96875 0.0195312 -1.203125 -0.1875 -1.578125 C -0.40625 -1.953125 -0.476562 -2.378906 -0.40625 -2.859375 C -0.34375 -3.347656 -0.195312 -3.816406 0.03125 -4.265625 C 0.207031 -4.585938 0.453125 -4.890625 0.765625 -5.171875 C 1.078125 -5.460938 1.40625 -5.691406 1.75 -5.859375 C 2.175781 -6.066406 2.601562 -6.164062 3.03125 -6.15625 C 3.457031 -6.144531 3.914062 -6.003906 4.40625 -5.734375 C 4.414062 -5.722656 4.421875 -5.734375 4.421875 -5.765625 C 4.421875 -5.804688 4.429688 -5.863281 4.453125 -5.9375 C 4.484375 -6.007812 4.53125 -6.070312 4.59375 -6.125 C 4.75 -6.238281 4.9375 -6.296875 5.15625 -6.296875 C 5.375 -6.296875 5.546875 -6.1875 5.671875 -5.96875 C 5.691406 -5.675781 5.660156 -5.3125 5.578125 -4.875 C 5.398438 -3.90625 5.398438 -3.207031 5.578125 -2.78125 C 5.753906 -2.363281 6.066406 -2.171875 6.515625 -2.203125 C 6.960938 -2.234375 7.539062 -2.675781 8.25 -3.53125 C 8.96875 -4.382812 9.253906 -4.585938 9.109375 -4.140625 Z M 1.1875 -1.875 C 1.425781 -1.695312 1.707031 -1.71875 2.03125 -1.9375 C 2.351562 -2.164062 2.660156 -2.484375 2.953125 -2.890625 C 3.242188 -3.304688 3.488281 -3.71875 3.6875 -4.125 C 3.894531 -4.539062 4.007812 -4.851562 4.03125 -5.0625 C 3.425781 -5.375 2.910156 -5.425781 2.484375 -5.21875 C 2.054688 -5.007812 1.710938 -4.664062 1.453125 -4.1875 C 1.203125 -3.707031 1.050781 -3.238281 1 -2.78125 C 0.957031 -2.320312 1.019531 -2.019531 1.1875 -1.875 Z M 1.1875 -1.875 "/></g></g></g><g fill="#000000" fill-opacity="1"><g transform="translate(68.773089, 38.465547)"><g><path d="M 9.859375 -2.96875 C 9.859375 -2.96875 9.859375 -2.972656 9.859375 -2.984375 C 9.910156 -3.035156 10.023438 -3.140625 10.203125 -3.296875 C 10.390625 -3.460938 10.582031 -3.617188 10.78125 -3.765625 C 10.976562 -3.921875 11.117188 -4 11.203125 -4 C 11.296875 -4.007812 11.28125 -3.878906 11.15625 -3.609375 C 11.132812 -3.566406 11.101562 -3.519531 11.0625 -3.46875 C 11.019531 -3.414062 10.984375 -3.367188 10.953125 -3.328125 C 10.929688 -3.316406 10.914062 -3.300781 10.90625 -3.28125 C 10.082031 -2.394531 9.4375 -1.78125 8.96875 -1.4375 C 8.5 -1.101562 8.035156 -0.945312 7.578125 -0.96875 C 7.109375 -1.007812 6.789062 -1.191406 6.625 -1.515625 C 6.457031 -1.835938 6.375 -2.226562 6.375 -2.6875 C 6.382812 -3.144531 6.425781 -3.609375 6.5 -4.078125 C 6.570312 -4.566406 6.597656 -4.984375 6.578125 -5.328125 C 6.566406 -5.679688 6.453125 -5.882812 6.234375 -5.9375 C 6.023438 -5.957031 5.804688 -5.785156 5.578125 -5.421875 C 5.359375 -5.054688 5.148438 -4.632812 4.953125 -4.15625 C 4.753906 -3.675781 4.585938 -3.253906 4.453125 -2.890625 C 4.390625 -2.691406 4.34375 -2.550781 4.3125 -2.46875 C 4.207031 -2.28125 4.066406 -2.15625 3.890625 -2.09375 C 3.710938 -2.039062 3.523438 -2.054688 3.328125 -2.140625 C 3.210938 -2.210938 3.140625 -2.3125 3.109375 -2.4375 C 3.078125 -2.71875 3.066406 -3.015625 3.078125 -3.328125 C 3.085938 -3.523438 3.085938 -3.71875 3.078125 -3.90625 C 3.078125 -3.945312 3.078125 -4.003906 3.078125 -4.078125 C 3.078125 -4.171875 3.078125 -4.265625 3.078125 -4.359375 C 3.078125 -4.453125 3.066406 -4.535156 3.046875 -4.609375 C 3.035156 -4.679688 3 -4.71875 2.9375 -4.71875 C 2.84375 -4.726562 2.726562 -4.617188 2.59375 -4.390625 C 2.46875 -4.160156 2.335938 -3.882812 2.203125 -3.5625 C 2.066406 -3.25 1.945312 -2.960938 1.84375 -2.703125 C 1.75 -2.472656 1.6875 -2.320312 1.65625 -2.25 C 1.632812 -2.207031 1.613281 -2.171875 1.59375 -2.140625 C 1.488281 -1.921875 1.378906 -1.707031 1.265625 -1.5 C 1.179688 -1.320312 1.03125 -1.21875 0.8125 -1.1875 C 0.375 -1.113281 0.140625 -1.289062 0.109375 -1.71875 C 0.078125 -2.8125 0.046875 -3.90625 0.015625 -5 C 0.015625 -5.289062 0.191406 -5.394531 0.546875 -5.3125 C 0.898438 -5.226562 1.097656 -5.039062 1.140625 -4.75 C 1.171875 -4.289062 1.222656 -4.054688 1.296875 -4.046875 C 1.367188 -4.046875 1.515625 -4.253906 1.734375 -4.671875 C 1.859375 -4.867188 1.984375 -5.066406 2.109375 -5.265625 C 2.253906 -5.535156 2.460938 -5.773438 2.734375 -5.984375 C 2.992188 -6.160156 3.25 -6.210938 3.5 -6.140625 C 3.75 -6.066406 3.945312 -5.875 4.09375 -5.5625 C 4.144531 -5.4375 4.203125 -5.367188 4.265625 -5.359375 C 4.328125 -5.347656 4.382812 -5.375 4.4375 -5.4375 C 4.5 -5.5 4.5625 -5.578125 4.625 -5.671875 C 4.664062 -5.765625 4.71875 -5.847656 4.78125 -5.921875 C 5.113281 -6.285156 5.507812 -6.535156 5.96875 -6.671875 C 6.425781 -6.816406 6.84375 -6.8125 7.21875 -6.65625 C 7.59375 -6.507812 7.804688 -6.175781 7.859375 -5.65625 C 7.878906 -5.03125 7.835938 -4.394531 7.734375 -3.75 C 7.691406 -3.4375 7.65625 -3.140625 7.625 -2.859375 C 7.601562 -2.253906 7.710938 -1.921875 7.953125 -1.859375 C 8.203125 -1.804688 8.5 -1.90625 8.84375 -2.15625 C 9.195312 -2.40625 9.535156 -2.675781 9.859375 -2.96875 Z M 9.859375 -2.96875 "/></g></g></g><g fill="#000000" fill-opacity="1"><g transform="translate(79.323713, 38.465547)"><g/></g></g><g fill="#000000" fill-opacity="1"><g transform="translate(83.411976, 38.465547)"><g><path d="M 24.640625 -4.8125 C 24.765625 -4.820312 24.820312 -4.734375 24.8125 -4.546875 C 24.800781 -4.359375 24.722656 -4.253906 24.578125 -4.234375 C 24.441406 -4.210938 24.316406 -4.148438 24.203125 -4.046875 C 24.097656 -3.941406 24.046875 -3.820312 24.046875 -3.6875 C 24.078125 -2.550781 23.929688 -1.453125 23.609375 -0.390625 C 23.285156 0.660156 22.851562 1.679688 22.3125 2.671875 C 21.238281 4.703125 19.929688 6.507812 18.390625 8.09375 C 16.859375 9.6875 15.066406 11.03125 13.015625 12.125 C 11.878906 12.707031 10.710938 13.144531 9.515625 13.4375 C 8.316406 13.738281 7.070312 13.851562 5.78125 13.78125 C 4.707031 13.71875 3.703125 13.429688 2.765625 12.921875 C 1.640625 12.253906 0.894531 11.382812 0.53125 10.3125 C 0.175781 9.25 0.242188 8.117188 0.734375 6.921875 C 1.253906 5.742188 2.070312 4.648438 3.1875 3.640625 C 4.3125 2.640625 5.613281 1.710938 7.09375 0.859375 C 8.570312 0.015625 10.113281 -0.726562 11.71875 -1.375 C 13.332031 -2.019531 14.882812 -2.570312 16.375 -3.03125 C 17.863281 -3.5 19.1875 -3.847656 20.34375 -4.078125 C 20.664062 -4.148438 20.976562 -4.21875 21.28125 -4.28125 C 21.613281 -4.34375 21.9375 -4.40625 22.25 -4.46875 C 22.53125 -4.519531 22.628906 -4.671875 22.546875 -4.921875 C 22.273438 -6.046875 21.726562 -7.019531 20.90625 -7.84375 C 20.320312 -8.414062 19.679688 -8.898438 18.984375 -9.296875 C 18.296875 -9.703125 17.570312 -10.039062 16.8125 -10.3125 C 14.507812 -11.132812 12.128906 -11.59375 9.671875 -11.6875 C 9.503906 -11.707031 9.332031 -11.71875 9.15625 -11.71875 C 8.957031 -11.695312 8.851562 -11.585938 8.84375 -11.390625 C 8.8125 -11.160156 8.796875 -10.925781 8.796875 -10.6875 C 8.785156 -8.832031 8.78125 -6.976562 8.78125 -5.125 C 8.769531 -4.3125 8.765625 -3.492188 8.765625 -2.671875 C 8.765625 -2.609375 8.765625 -2.554688 8.765625 -2.515625 C 8.765625 -2.390625 8.765625 -2.269531 8.765625 -2.15625 C 8.703125 -1.625 8.425781 -1.441406 7.9375 -1.609375 C 7.738281 -1.660156 7.632812 -1.785156 7.625 -1.984375 C 7.601562 -2.242188 7.597656 -2.515625 7.609375 -2.796875 C 7.597656 -4.460938 7.59375 -6.128906 7.59375 -7.796875 C 7.59375 -8.640625 7.59375 -9.472656 7.59375 -10.296875 C 7.59375 -10.367188 7.59375 -10.441406 7.59375 -10.515625 C 7.59375 -10.710938 7.585938 -10.914062 7.578125 -11.125 C 7.578125 -11.351562 7.539062 -11.5 7.46875 -11.5625 C 7.40625 -11.632812 7.269531 -11.675781 7.0625 -11.6875 C 6.96875 -11.6875 6.878906 -11.6875 6.796875 -11.6875 C 6.578125 -11.707031 6.359375 -11.726562 6.140625 -11.75 C 5.953125 -11.769531 5.820312 -11.867188 5.75 -12.046875 C 5.695312 -12.273438 5.757812 -12.460938 5.9375 -12.609375 C 6.164062 -12.796875 6.410156 -12.976562 6.671875 -13.15625 C 6.773438 -13.21875 6.875 -13.273438 6.96875 -13.328125 C 7.164062 -13.453125 7.304688 -13.554688 7.390625 -13.640625 C 7.484375 -13.722656 7.535156 -13.816406 7.546875 -13.921875 C 7.566406 -14.023438 7.578125 -14.191406 7.578125 -14.421875 C 7.566406 -14.546875 7.5625 -14.695312 7.5625 -14.875 C 7.570312 -16.21875 7.578125 -17.5625 7.578125 -18.90625 C 7.578125 -19.644531 7.578125 -20.394531 7.578125 -21.15625 C 7.578125 -21.164062 7.578125 -21.179688 7.578125 -21.203125 C 7.578125 -21.460938 7.585938 -21.71875 7.609375 -21.96875 C 7.628906 -22.289062 7.816406 -22.445312 8.171875 -22.4375 C 8.515625 -22.445312 8.710938 -22.296875 8.765625 -21.984375 C 8.785156 -21.671875 8.796875 -21.359375 8.796875 -21.046875 C 8.796875 -20.242188 8.796875 -19.441406 8.796875 -18.640625 C 8.796875 -17.660156 8.804688 -16.6875 8.828125 -15.71875 C 8.804688 -15.644531 8.796875 -15.582031 8.796875 -15.53125 C 8.773438 -15.25 8.816406 -14.929688 8.921875 -14.578125 C 9.703125 -15.035156 10.644531 -15.609375 11.75 -16.296875 C 12.851562 -16.984375 13.976562 -17.722656 15.125 -18.515625 C 16.269531 -19.304688 17.285156 -20.097656 18.171875 -20.890625 C 19.054688 -21.679688 19.671875 -22.410156 20.015625 -23.078125 C 20.378906 -23.847656 20.210938 -24.476562 19.515625 -24.96875 C 18.648438 -25.550781 17.535156 -25.867188 16.171875 -25.921875 C 14.816406 -25.972656 13.378906 -25.828125 11.859375 -25.484375 C 10.347656 -25.140625 8.941406 -24.660156 7.640625 -24.046875 C 6.347656 -23.441406 5.328125 -22.753906 4.578125 -21.984375 C 4.335938 -21.734375 4.117188 -21.4375 3.921875 -21.09375 C 3.734375 -20.75 3.585938 -20.40625 3.484375 -20.0625 C 3.398438 -19.84375 3.238281 -19.710938 3 -19.671875 C 2.769531 -19.640625 2.570312 -19.707031 2.40625 -19.875 C 2.320312 -20 2.296875 -20.128906 2.328125 -20.265625 C 2.441406 -20.671875 2.628906 -21.039062 2.890625 -21.375 C 3.722656 -22.445312 4.910156 -23.382812 6.453125 -24.1875 C 7.992188 -24.988281 9.664062 -25.59375 11.46875 -26 C 13.269531 -26.414062 14.976562 -26.585938 16.59375 -26.515625 C 18.207031 -26.453125 19.515625 -26.085938 20.515625 -25.421875 C 21.523438 -24.722656 21.738281 -23.832031 21.15625 -22.75 C 20.863281 -22.207031 20.429688 -21.65625 19.859375 -21.09375 C 19.285156 -20.53125 18.675781 -20 18.03125 -19.5 C 17.394531 -19 16.828125 -18.566406 16.328125 -18.203125 C 15.421875 -17.535156 14.488281 -16.894531 13.53125 -16.28125 C 12.570312 -15.675781 11.609375 -15.085938 10.640625 -14.515625 C 10.617188 -14.503906 10.59375 -14.488281 10.5625 -14.46875 C 10.082031 -14.1875 9.613281 -13.898438 9.15625 -13.609375 C 8.820312 -13.359375 8.722656 -13.03125 8.859375 -12.625 C 8.867188 -12.582031 8.894531 -12.539062 8.9375 -12.5 C 8.976562 -12.457031 9.019531 -12.4375 9.0625 -12.4375 C 9.257812 -12.40625 9.453125 -12.390625 9.640625 -12.390625 C 9.648438 -12.390625 9.664062 -12.390625 9.6875 -12.390625 C 12.238281 -12.316406 14.722656 -11.878906 17.140625 -11.078125 C 18.484375 -10.648438 19.734375 -10.03125 20.890625 -9.21875 C 21.585938 -8.71875 22.179688 -8.148438 22.671875 -7.515625 C 23.160156 -6.878906 23.523438 -6.148438 23.765625 -5.328125 C 23.835938 -5.054688 23.921875 -4.890625 24.015625 -4.828125 C 24.117188 -4.765625 24.328125 -4.757812 24.640625 -4.8125 Z M 22.734375 -2.796875 C 22.785156 -3.273438 22.75 -3.566406 22.625 -3.671875 C 22.507812 -3.785156 22.207031 -3.78125 21.71875 -3.65625 C 20.570312 -3.425781 19.269531 -3.097656 17.8125 -2.671875 C 16.363281 -2.242188 14.867188 -1.722656 13.328125 -1.109375 C 11.796875 -0.492188 10.320312 0.207031 8.90625 1 C 7.488281 1.800781 6.238281 2.6875 5.15625 3.65625 C 4.082031 4.632812 3.273438 5.707031 2.734375 6.875 C 2.335938 7.757812 2.15625 8.59375 2.1875 9.375 C 2.226562 10.164062 2.429688 10.847656 2.796875 11.421875 C 3.160156 11.992188 3.644531 12.394531 4.25 12.625 C 5.019531 12.925781 5.816406 13.085938 6.640625 13.109375 C 6.703125 13.109375 6.753906 13.101562 6.796875 13.09375 C 6.921875 13.082031 7.039062 13.078125 7.15625 13.078125 C 8.707031 12.921875 10.175781 12.492188 11.5625 11.796875 C 14.082031 10.546875 16.210938 8.9375 17.953125 6.96875 C 19.691406 5 21.066406 2.707031 22.078125 0.09375 C 22.429688 -0.832031 22.648438 -1.796875 22.734375 -2.796875 Z M 22.734375 -2.796875 "/></g></g></g><g fill="#000000" fill-opacity="1"><g transform="translate(109.148722, 38.465547)"><g><path d="M 7.765625 -3.890625 C 7.878906 -3.960938 7.992188 -4.015625 8.109375 -4.046875 C 8.222656 -4.085938 8.296875 -4.082031 8.328125 -4.03125 C 8.359375 -3.988281 8.3125 -3.894531 8.1875 -3.75 C 7.78125 -3.289062 7.296875 -2.867188 6.734375 -2.484375 C 6.179688 -2.097656 5.609375 -1.773438 5.015625 -1.515625 C 4.554688 -1.304688 4.066406 -1.140625 3.546875 -1.015625 C 3.035156 -0.890625 2.53125 -0.859375 2.03125 -0.921875 C 1.53125 -0.992188 1.070312 -1.222656 0.65625 -1.609375 C 0.03125 -2.179688 -0.226562 -2.890625 -0.125 -3.734375 C -0.03125 -4.390625 0.226562 -4.953125 0.65625 -5.421875 C 1.082031 -5.890625 1.617188 -6.203125 2.265625 -6.359375 C 2.804688 -6.484375 3.347656 -6.5 3.890625 -6.40625 C 4.140625 -6.363281 4.367188 -6.28125 4.578125 -6.15625 C 4.765625 -6.007812 4.863281 -5.835938 4.875 -5.640625 C 4.894531 -5.453125 4.820312 -5.269531 4.65625 -5.09375 C 4.3125 -4.789062 3.914062 -4.609375 3.46875 -4.546875 C 2.96875 -4.460938 2.460938 -4.410156 1.953125 -4.390625 C 1.703125 -4.390625 1.523438 -4.335938 1.421875 -4.234375 C 1.328125 -4.128906 1.269531 -3.953125 1.25 -3.703125 C 1.175781 -3.035156 1.394531 -2.488281 1.90625 -2.0625 C 2.21875 -1.8125 2.597656 -1.703125 3.046875 -1.734375 C 3.503906 -1.773438 3.988281 -1.898438 4.5 -2.109375 C 5.007812 -2.316406 5.507812 -2.554688 6 -2.828125 C 6.488281 -3.109375 6.925781 -3.375 7.3125 -3.625 C 7.476562 -3.726562 7.628906 -3.816406 7.765625 -3.890625 Z M 2.171875 -5.328125 C 2.171875 -5.304688 2.160156 -5.296875 2.140625 -5.296875 C 2.117188 -5.273438 2.085938 -5.25 2.046875 -5.21875 C 2.015625 -5.195312 1.984375 -5.171875 1.953125 -5.140625 C 1.929688 -5.109375 1.921875 -5.085938 1.921875 -5.078125 C 1.929688 -5.035156 2.023438 -5.023438 2.203125 -5.046875 C 2.390625 -5.066406 2.59375 -5.097656 2.8125 -5.140625 C 3.03125 -5.191406 3.210938 -5.253906 3.359375 -5.328125 C 3.503906 -5.410156 3.550781 -5.503906 3.5 -5.609375 C 3.46875 -5.640625 3.429688 -5.664062 3.390625 -5.6875 C 3.347656 -5.71875 3.304688 -5.738281 3.265625 -5.75 C 3.046875 -5.75 2.847656 -5.707031 2.671875 -5.625 C 2.492188 -5.539062 2.328125 -5.441406 2.171875 -5.328125 Z M 2.171875 -5.328125 "/></g></g></g><g fill="#000000" fill-opacity="1"><g transform="translate(116.938957, 38.465547)"><g><path d="M 6.65625 -3.09375 C 7.070312 -3.75 7.316406 -4.164062 7.390625 -4.34375 C 7.472656 -4.519531 7.535156 -4.507812 7.578125 -4.3125 C 7.617188 -4.125 7.484375 -3.691406 7.171875 -3.015625 C 6.867188 -2.335938 6.484375 -1.8125 6.015625 -1.4375 C 5.554688 -1.070312 5.125 -0.9375 4.71875 -1.03125 C 4.320312 -1.132812 4.035156 -1.414062 3.859375 -1.875 C 3.691406 -2.332031 3.644531 -2.910156 3.71875 -3.609375 C 3.71875 -3.617188 3.722656 -3.644531 3.734375 -3.6875 C 3.742188 -3.8125 3.765625 -3.988281 3.796875 -4.21875 C 3.828125 -4.445312 3.847656 -4.679688 3.859375 -4.921875 C 3.867188 -5.171875 3.859375 -5.375 3.828125 -5.53125 C 3.804688 -5.695312 3.734375 -5.757812 3.609375 -5.71875 C 3.328125 -5.5625 3.050781 -5.253906 2.78125 -4.796875 C 2.507812 -4.347656 2.265625 -3.875 2.046875 -3.375 C 1.828125 -2.875 1.671875 -2.472656 1.578125 -2.171875 C 1.535156 -2.078125 1.5 -1.976562 1.46875 -1.875 C 1.425781 -1.726562 1.375 -1.585938 1.3125 -1.453125 C 1.15625 -1.046875 0.882812 -0.890625 0.5 -0.984375 C 0.28125 -1.023438 0.15625 -1.15625 0.125 -1.375 C 0.113281 -1.539062 0.109375 -1.695312 0.109375 -1.84375 C 0.109375 -1.945312 0.101562 -2.035156 0.09375 -2.109375 C 0.0703125 -3.304688 0.0390625 -4.507812 0 -5.71875 C 0.0078125 -5.851562 0.0703125 -5.945312 0.1875 -6 C 0.300781 -6.050781 0.4375 -6.078125 0.59375 -6.078125 C 0.707031 -6.078125 0.816406 -6.046875 0.921875 -5.984375 C 1.023438 -5.921875 1.09375 -5.789062 1.125 -5.59375 C 1.132812 -5.519531 1.140625 -5.445312 1.140625 -5.375 C 1.148438 -5.34375 1.15625 -5.304688 1.15625 -5.265625 C 1.175781 -5.097656 1.1875 -4.957031 1.1875 -4.84375 C 1.1875 -4.664062 1.195312 -4.546875 1.21875 -4.484375 C 1.238281 -4.421875 1.285156 -4.421875 1.359375 -4.484375 C 1.441406 -4.554688 1.570312 -4.722656 1.75 -4.984375 C 2.0625 -5.460938 2.441406 -5.863281 2.890625 -6.1875 C 3.304688 -6.476562 3.757812 -6.601562 4.25 -6.5625 C 4.675781 -6.519531 4.960938 -6.296875 5.109375 -5.890625 C 5.160156 -5.691406 5.1875 -5.488281 5.1875 -5.28125 C 5.1875 -5.070312 5.175781 -4.863281 5.15625 -4.65625 C 5.144531 -4.4375 5.128906 -4.21875 5.109375 -4 C 5.085938 -3.925781 5.070312 -3.851562 5.0625 -3.78125 C 4.988281 -3.007812 5.007812 -2.492188 5.125 -2.234375 C 5.25 -1.972656 5.429688 -1.882812 5.671875 -1.96875 C 5.910156 -2.0625 6.238281 -2.4375 6.65625 -3.09375 Z M 6.65625 -3.09375 "/></g></g></g><g fill="#000000" fill-opacity="1"><g transform="translate(124.020988, 38.465547)"><g><path d="M 4.171875 -3.265625 C 4.003906 -2.921875 3.722656 -2.539062 3.328125 -2.125 C 2.929688 -1.707031 2.476562 -1.441406 1.96875 -1.328125 C 1.457031 -1.210938 0.972656 -1.382812 0.515625 -1.84375 C 0.335938 -2.050781 0.207031 -2.285156 0.125 -2.546875 C 0.0390625 -2.816406 0.0078125 -3.082031 0.03125 -3.34375 C 0.03125 -3.40625 0.03125 -3.492188 0.03125 -3.609375 C 0.03125 -3.878906 0.0390625 -4.191406 0.0625 -4.546875 C 0.09375 -4.910156 0.148438 -5.238281 0.234375 -5.53125 C 0.316406 -5.820312 0.445312 -5.992188 0.625 -6.046875 C 1.132812 -6.179688 1.410156 -6.003906 1.453125 -5.515625 C 1.453125 -5.359375 1.445312 -5.207031 1.4375 -5.0625 C 1.425781 -4.976562 1.421875 -4.898438 1.421875 -4.828125 C 1.410156 -4.597656 1.398438 -4.375 1.390625 -4.15625 C 1.390625 -3.976562 1.378906 -3.800781 1.359375 -3.625 C 1.347656 -2.84375 1.519531 -2.378906 1.875 -2.234375 C 2.238281 -2.085938 2.648438 -2.242188 3.109375 -2.703125 C 3.578125 -3.160156 3.878906 -3.539062 4.015625 -3.84375 C 4.160156 -4.15625 4.265625 -4.222656 4.328125 -4.046875 C 4.390625 -3.867188 4.335938 -3.609375 4.171875 -3.265625 Z M 1.34375 -7.71875 C 1.269531 -7.65625 1.179688 -7.613281 1.078125 -7.59375 C 0.984375 -7.582031 0.898438 -7.59375 0.828125 -7.625 C 0.765625 -7.664062 0.722656 -7.722656 0.703125 -7.796875 C 0.691406 -7.878906 0.6875 -7.976562 0.6875 -8.09375 C 0.6875 -8.113281 0.691406 -8.132812 0.703125 -8.15625 C 0.710938 -8.25 0.738281 -8.34375 0.78125 -8.4375 C 0.882812 -8.695312 1.109375 -8.816406 1.453125 -8.796875 C 1.566406 -8.773438 1.65625 -8.722656 1.71875 -8.640625 C 1.789062 -8.566406 1.804688 -8.476562 1.765625 -8.375 C 1.691406 -8.113281 1.550781 -7.894531 1.34375 -7.71875 Z M 1.34375 -7.71875 "/></g></g></g><g fill="#000000" fill-opacity="1"><g transform="translate(127.972447, 38.465547)"><g><path d="M 10.5 -4.40625 C 10.53125 -4.394531 10.566406 -4.367188 10.609375 -4.328125 C 10.660156 -4.296875 10.691406 -4.253906 10.703125 -4.203125 C 10.710938 -4.160156 10.679688 -4.117188 10.609375 -4.078125 C 10.171875 -3.847656 9.640625 -3.753906 9.015625 -3.796875 C 8.390625 -3.835938 7.894531 -4.039062 7.53125 -4.40625 C 7.507812 -4.21875 7.476562 -4.035156 7.4375 -3.859375 C 7.375 -3.460938 7.316406 -3.082031 7.265625 -2.71875 C 7.179688 -2.300781 7.035156 -1.90625 6.828125 -1.53125 C 6.566406 -1.09375 6.222656 -0.800781 5.796875 -0.65625 C 5.367188 -0.519531 4.96875 -0.5 4.59375 -0.59375 C 4.1875 -0.675781 3.859375 -0.875 3.609375 -1.1875 C 3.503906 -1.320312 3.40625 -1.460938 3.3125 -1.609375 C 3.269531 -1.660156 3.226562 -1.71875 3.1875 -1.78125 C 3.082031 -1.769531 3 -1.738281 2.9375 -1.6875 C 2.875 -1.632812 2.820312 -1.578125 2.78125 -1.515625 C 2.738281 -1.453125 2.6875 -1.40625 2.625 -1.375 C 2.207031 -1.082031 1.796875 -0.984375 1.390625 -1.078125 C 0.984375 -1.179688 0.671875 -1.457031 0.453125 -1.90625 C 0.367188 -2.113281 0.300781 -2.332031 0.25 -2.5625 C 0.144531 -3 0.078125 -3.4375 0.046875 -3.875 C 0.015625 -4.3125 0.00390625 -4.753906 0.015625 -5.203125 C 0.046875 -5.472656 0.148438 -5.648438 0.328125 -5.734375 C 0.515625 -5.816406 0.695312 -5.804688 0.875 -5.703125 C 1.0625 -5.597656 1.164062 -5.40625 1.1875 -5.125 C 1.195312 -4.9375 1.203125 -4.75 1.203125 -4.5625 C 1.191406 -3.875 1.269531 -3.203125 1.4375 -2.546875 C 1.476562 -2.390625 1.53125 -2.238281 1.59375 -2.09375 C 1.632812 -2.03125 1.6875 -1.992188 1.75 -1.984375 C 1.8125 -1.984375 1.867188 -2.015625 1.921875 -2.078125 C 2.097656 -2.328125 2.226562 -2.597656 2.3125 -2.890625 C 2.40625 -3.179688 2.484375 -3.476562 2.546875 -3.78125 C 2.546875 -3.820312 2.550781 -3.859375 2.5625 -3.890625 C 2.582031 -4.015625 2.613281 -4.148438 2.65625 -4.296875 C 2.675781 -4.472656 2.710938 -4.648438 2.765625 -4.828125 C 2.847656 -5.117188 3.078125 -5.242188 3.453125 -5.203125 C 3.765625 -5.179688 3.929688 -5.019531 3.953125 -4.71875 C 3.953125 -4.03125 4.023438 -3.359375 4.171875 -2.703125 C 4.222656 -2.460938 4.289062 -2.226562 4.375 -2 C 4.46875 -1.78125 4.601562 -1.578125 4.78125 -1.390625 C 4.96875 -1.210938 5.164062 -1.210938 5.375 -1.390625 C 5.664062 -1.671875 5.859375 -2 5.953125 -2.375 C 6.179688 -3.125 6.285156 -3.894531 6.265625 -4.6875 C 6.265625 -4.738281 6.265625 -4.796875 6.265625 -4.859375 C 6.242188 -5.191406 6.238281 -5.515625 6.25 -5.828125 C 6.257812 -6.285156 6.503906 -6.457031 6.984375 -6.34375 C 7.085938 -6.320312 7.179688 -6.285156 7.265625 -6.234375 C 7.359375 -6.191406 7.425781 -6.109375 7.46875 -5.984375 C 7.84375 -5.171875 8.226562 -4.644531 8.625 -4.40625 C 9.019531 -4.175781 9.382812 -4.085938 9.71875 -4.140625 C 10.050781 -4.203125 10.289062 -4.28125 10.4375 -4.375 C 10.46875 -4.382812 10.488281 -4.394531 10.5 -4.40625 Z M 10.5 -4.40625 "/></g></g></g><g fill="#000000" fill-opacity="1"><g transform="translate(137.782676, 38.465547)"><g><path d="M 9.109375 -4.140625 C 8.960938 -3.691406 8.671875 -3.175781 8.234375 -2.59375 C 7.796875 -2.007812 7.25 -1.632812 6.59375 -1.46875 C 5.9375 -1.300781 5.367188 -1.320312 4.890625 -1.53125 C 4.410156 -1.738281 4.148438 -2.304688 4.109375 -3.234375 C 3.566406 -2.179688 3.046875 -1.503906 2.546875 -1.203125 C 2.054688 -0.910156 1.546875 -0.800781 1.015625 -0.875 C 0.421875 -0.96875 0.0195312 -1.203125 -0.1875 -1.578125 C -0.40625 -1.953125 -0.476562 -2.378906 -0.40625 -2.859375 C -0.34375 -3.347656 -0.195312 -3.816406 0.03125 -4.265625 C 0.207031 -4.585938 0.453125 -4.890625 0.765625 -5.171875 C 1.078125 -5.460938 1.40625 -5.691406 1.75 -5.859375 C 2.175781 -6.066406 2.601562 -6.164062 3.03125 -6.15625 C 3.457031 -6.144531 3.914062 -6.003906 4.40625 -5.734375 C 4.414062 -5.722656 4.421875 -5.734375 4.421875 -5.765625 C 4.421875 -5.804688 4.429688 -5.863281 4.453125 -5.9375 C 4.484375 -6.007812 4.53125 -6.070312 4.59375 -6.125 C 4.75 -6.238281 4.9375 -6.296875 5.15625 -6.296875 C 5.375 -6.296875 5.546875 -6.1875 5.671875 -5.96875 C 5.691406 -5.675781 5.660156 -5.3125 5.578125 -4.875 C 5.398438 -3.90625 5.398438 -3.207031 5.578125 -2.78125 C 5.753906 -2.363281 6.066406 -2.171875 6.515625 -2.203125 C 6.960938 -2.234375 7.539062 -2.675781 8.25 -3.53125 C 8.96875 -4.382812 9.253906 -4.585938 9.109375 -4.140625 Z M 1.1875 -1.875 C 1.425781 -1.695312 1.707031 -1.71875 2.03125 -1.9375 C 2.351562 -2.164062 2.660156 -2.484375 2.953125 -2.890625 C 3.242188 -3.304688 3.488281 -3.71875 3.6875 -4.125 C 3.894531 -4.539062 4.007812 -4.851562 4.03125 -5.0625 C 3.425781 -5.375 2.910156 -5.425781 2.484375 -5.21875 C 2.054688 -5.007812 1.710938 -4.664062 1.453125 -4.1875 C 1.203125 -3.707031 1.050781 -3.238281 1 -2.78125 C 0.957031 -2.320312 1.019531 -2.019531 1.1875 -1.875 Z M 1.1875 -1.875 "/></g></g></g><g fill="#000000" fill-opacity="1"><g transform="translate(146.313305, 38.465547)"><g><path d="M 5.8125 -3.75 C 5.90625 -3.96875 6.003906 -4.078125 6.109375 -4.078125 C 6.210938 -4.078125 6.25 -3.96875 6.21875 -3.75 C 6.039062 -3.207031 5.828125 -2.679688 5.578125 -2.171875 C 5.328125 -1.671875 4.992188 -1.222656 4.578125 -0.828125 C 4.253906 -0.503906 3.867188 -0.296875 3.421875 -0.203125 C 2.816406 -0.117188 2.316406 -0.191406 1.921875 -0.421875 C 1.523438 -0.648438 1.210938 -0.976562 0.984375 -1.40625 C 0.753906 -1.84375 0.582031 -2.316406 0.46875 -2.828125 C 0.351562 -3.347656 0.28125 -3.847656 0.25 -4.328125 C 0.164062 -5.242188 0.101562 -6.441406 0.0625 -7.921875 C 0.0195312 -9.410156 0.03125 -10.984375 0.09375 -12.640625 C 0.164062 -14.296875 0.328125 -15.832031 0.578125 -17.25 C 0.835938 -18.664062 1.21875 -19.765625 1.71875 -20.546875 C 2 -20.929688 2.328125 -21.125 2.703125 -21.125 C 3.085938 -21.132812 3.425781 -20.960938 3.71875 -20.609375 C 3.914062 -20.328125 4.066406 -20.035156 4.171875 -19.734375 C 4.273438 -19.429688 4.34375 -19.117188 4.375 -18.796875 C 4.476562 -17.710938 4.460938 -16.5625 4.328125 -15.34375 C 4.191406 -14.132812 3.976562 -12.84375 3.6875 -11.46875 C 3.40625 -10.101562 3.0625 -8.894531 2.65625 -7.84375 C 2.25 -6.800781 1.914062 -5.972656 1.65625 -5.359375 C 1.507812 -5.109375 1.453125 -4.734375 1.484375 -4.234375 C 1.535156 -3.691406 1.640625 -3.125 1.796875 -2.53125 C 1.953125 -1.945312 2.175781 -1.484375 2.46875 -1.140625 C 2.726562 -0.859375 3.023438 -0.769531 3.359375 -0.875 C 3.691406 -0.976562 4.023438 -1.203125 4.359375 -1.546875 C 4.691406 -1.890625 4.984375 -2.265625 5.234375 -2.671875 C 5.484375 -3.078125 5.675781 -3.4375 5.8125 -3.75 Z M 1.515625 -11.984375 C 1.484375 -11.628906 1.453125 -11.09375 1.421875 -10.375 C 1.398438 -9.65625 1.375 -8.925781 1.34375 -8.1875 C 1.320312 -7.363281 1.296875 -6.722656 1.265625 -6.265625 C 1.535156 -6.847656 1.84375 -7.703125 2.1875 -8.828125 C 2.539062 -9.960938 2.859375 -11.289062 3.140625 -12.8125 C 3.429688 -14.34375 3.617188 -16 3.703125 -17.78125 C 3.648438 -18.820312 3.523438 -19.523438 3.328125 -19.890625 C 3.128906 -20.265625 2.910156 -20.300781 2.671875 -20 C 2.429688 -19.695312 2.242188 -19.050781 2.109375 -18.0625 C 1.890625 -16.4375 1.722656 -14.8125 1.609375 -13.1875 C 1.578125 -12.78125 1.546875 -12.378906 1.515625 -11.984375 Z M 1.515625 -11.984375 "/></g></g></g></svg>